<svg width="165" height="116" viewBox="0 0 165 116" fill="none" xmlns="http://www.w3.org/2000/svg">
<path d="M153.663 38.7194C156.415 48.9887 151.078 60.5055 139.958 70.8505C128.856 81.1785 112.088 90.2354 92.2788 95.5432C72.47 100.851 53.4195 101.392 38.6413 97.9982C23.8386 94.5991 13.458 87.2939 10.7063 77.0247C7.95467 66.7554 13.292 55.2386 24.412 44.8936C35.5135 34.5656 52.2821 25.5087 72.0909 20.2009C91.8997 14.8932 110.95 14.3524 125.728 17.7459C140.531 21.145 150.912 28.4502 153.663 38.7194Z" fill="#EBE3FF" fill-opacity="0.19" stroke="#D9FF5A"/>
<path d="M46.2457 80.5269L47.1272 83.8168L45.5827 84.2307L43.2274 75.4407C43.6627 75.3241 44.1346 75.1932 44.643 75.048C45.1514 74.9028 45.5689 74.7864 45.8953 74.699C48.0217 74.1292 49.3271 74.7484 49.8116 76.5567C49.991 77.2264 49.9675 77.8249 49.7409 78.3521C49.5098 78.8627 49.1926 79.2527 48.7893 79.5223L52.5016 82.3767L50.6306 82.8781L47.3256 80.2375L46.2457 80.5269ZM46.2069 76.1632C46.1651 76.1744 46.0992 76.1965 46.0094 76.2296C45.9173 76.2543 45.7887 76.2932 45.6235 76.3465C45.4561 76.3913 45.3012 76.4328 45.1589 76.4709L45.8587 79.0828L46.8633 78.8136C47.3572 78.6813 47.7265 78.4522 47.9712 78.1265C48.2242 77.7985 48.2947 77.4252 48.1825 77.0066C47.9538 76.1527 47.2952 75.8716 46.2069 76.1632ZM56.927 79.4952L57.614 80.4013C57.1787 81.0203 56.5216 81.4476 55.6426 81.6832C54.7385 81.9254 53.9289 81.8508 53.2138 81.4591C52.5178 81.0714 52.0497 80.4297 51.8097 79.534C51.5854 78.6968 51.669 77.9207 52.0606 77.2057C52.4523 76.4906 53.1001 76.012 54.0042 75.7697C54.7493 75.5701 55.4475 75.6477 56.0988 76.0025C56.7502 76.3574 57.178 76.9157 57.3821 77.6775C57.4718 78.0123 57.512 78.2797 57.5028 78.4795L53.4218 79.5731C53.5903 79.9676 53.8566 80.2416 54.2208 80.3953C54.5933 80.5467 55.0098 80.5607 55.4702 80.4373C56.0981 80.2691 56.5837 79.955 56.927 79.4952ZM54.2644 76.992C53.444 77.2118 53.06 77.7544 53.1124 78.6196L55.8875 77.876C55.7995 77.5138 55.6038 77.2522 55.3004 77.0913C55.0032 76.9197 54.6579 76.8866 54.2644 76.992ZM65.4538 81.5979L64.0098 81.9849L63.2595 79.1846C62.9004 79.5859 62.4739 79.8527 61.98 79.9851C61.0843 80.2251 60.2968 80.149 59.6174 79.7568C58.9442 79.3539 58.4876 78.7047 58.2476 77.8089C58.0211 76.9634 58.1382 76.1783 58.599 75.4537C59.066 74.7185 59.7641 74.2264 60.6933 73.9774C61.6644 73.7172 62.5704 73.7167 63.4115 73.9758L65.4538 81.5979ZM61.8084 78.591C62.2939 78.4609 62.6498 78.1816 62.8759 77.7531L62.2232 75.3171C61.7971 75.2338 61.4041 75.2404 61.0441 75.3369C60.5251 75.476 60.1575 75.7449 59.9414 76.1438C59.723 76.5343 59.6789 76.9723 59.809 77.4579C59.9301 77.9099 60.1722 78.2443 60.5354 78.461C60.9069 78.6755 61.3312 78.7188 61.8084 78.591ZM68.5231 72.0274L69.9672 71.6405L71.4813 77.2912L70.0372 77.6781L69.8522 76.9875C69.5481 77.6611 69.0194 78.0989 68.266 78.3007C67.6633 78.4622 67.1281 78.3903 66.6604 78.0849C66.1928 77.7796 65.8581 77.2502 65.6562 76.4967L64.7309 73.0435L66.175 72.6566L67.0195 75.8084C67.2505 76.6707 67.726 77.0054 68.4459 76.8124C68.9399 76.6801 69.3009 76.3366 69.5292 75.782L68.5231 72.0274ZM77.0992 74.0901L77.7861 74.9961C77.3509 75.6152 76.6937 76.0425 75.8148 76.2781C74.9106 76.5203 74.1011 76.4456 73.386 76.054C72.6899 75.6663 72.2219 75.0246 71.9819 74.1288C71.7576 73.2917 71.8412 72.5156 72.2328 71.8006C72.6244 71.0855 73.2723 70.6068 74.1764 70.3646C74.9215 70.165 75.6197 70.2426 76.271 70.5974C76.9224 70.9522 77.3501 71.5105 77.5543 72.2723C77.644 72.6072 77.6842 72.8746 77.675 73.0744L73.5939 74.1679C73.7625 74.5624 74.0288 74.8365 74.393 74.9901C74.7655 75.1416 75.182 75.1556 75.6424 75.0322C76.2703 74.864 76.7559 74.5499 77.0992 74.0901ZM74.4366 71.5869C73.6162 71.8067 73.2322 72.3492 73.2846 73.2145L76.0597 72.4709C75.9717 72.1087 75.776 71.8471 75.4726 71.6861C75.1754 71.5145 74.8301 71.4815 74.4366 71.5869ZM78.2868 71.1071C78.1454 70.5797 78.2258 70.1095 78.5279 69.6966C78.83 69.2837 79.2866 68.9953 79.8977 68.8316C80.8186 68.5848 81.5982 68.6316 82.2367 68.972L81.9727 70.1463C81.4158 69.9097 80.8569 69.8666 80.2961 70.0169C80.0951 70.0707 79.9412 70.1658 79.8342 70.3021C79.7249 70.4301 79.6882 70.5611 79.7241 70.695C79.7981 70.9713 80.2156 71.1061 80.9765 71.0996C81.2517 71.0887 81.4999 71.094 81.721 71.1155C81.9398 71.1286 82.1718 71.1741 82.417 71.252C82.6683 71.3193 82.8806 71.4418 83.0539 71.6197C83.2271 71.7976 83.3508 72.0246 83.4248 72.3009C83.5729 72.8534 83.4813 73.349 83.1503 73.7876C82.8275 74.224 82.3188 74.5353 81.6239 74.7215C81.13 74.8538 80.6206 74.8782 80.0958 74.7945C79.5603 74.7047 79.1964 74.5689 79.0041 74.3871L79.455 73.2569C79.6656 73.4069 79.9731 73.4995 80.3773 73.5347C80.7922 73.5761 81.1335 73.5609 81.4014 73.4891C81.7369 73.4351 81.939 73.2688 82.0079 72.9901C82.0746 72.7031 81.9317 72.5215 81.5794 72.4455C81.4358 72.4121 81.22 72.3937 80.932 72.3901C80.6523 72.3843 80.3893 72.374 80.1431 72.3593C79.903 72.3339 79.649 72.2898 79.3809 72.227C79.1212 72.162 78.8953 72.0386 78.703 71.8569C78.5085 71.6667 78.3697 71.4168 78.2868 71.1071ZM84.4439 71.5164L83.0846 66.4434L84.5286 66.0564L84.9492 67.6261L86.77 67.1382L87.1333 68.4944L85.3126 68.9822L85.8644 71.0416C86.0461 71.7197 86.3629 71.9981 86.815 71.877C87.0996 71.8008 87.3593 71.6145 87.594 71.3184L88.3329 72.3182C87.9712 72.8099 87.4638 73.1432 86.8109 73.3182C86.1997 73.4819 85.7025 73.4178 85.3192 73.1257C84.942 72.823 84.6502 72.2866 84.4439 71.5164ZM93.1934 71.4734L93.0804 71.5037L90.7251 62.7138L90.8632 62.6768C91.2232 62.5803 91.5569 62.4864 91.8644 62.395C92.4794 62.2123 92.8455 62.1052 92.9627 62.0738C93.8082 61.8473 94.5847 61.7648 95.2921 61.8265C96.0056 61.8776 96.6099 62.0566 97.1049 62.3636C97.5976 62.6623 98.0045 63.0423 98.3255 63.5036C98.6526 63.9543 98.8947 64.4726 99.0517 65.0586C99.4061 66.3813 99.2582 67.5873 98.608 68.6767C97.9662 69.7639 96.8416 70.5228 95.2343 70.9535C94.8744 71.0499 94.5426 71.1343 94.239 71.2067C93.9354 71.2791 93.5868 71.368 93.1934 71.4734ZM93.1126 62.7335C92.9284 62.7829 92.6586 62.8641 92.3031 62.9773C91.9537 63.0799 91.7163 63.148 91.5907 63.1817L93.596 70.6657C93.8723 70.5917 94.1329 70.5263 94.3779 70.4696C94.6207 70.4046 94.7976 70.3617 94.9087 70.3409C95.0175 70.3117 95.0761 70.296 95.0845 70.2938C96.449 69.9281 97.4074 69.2855 97.9595 68.366C98.5094 67.438 98.6307 66.4006 98.3234 65.2537C98.034 64.1738 97.4427 63.3902 96.5495 62.9028C95.6478 62.4176 94.5022 62.3612 93.1126 62.7335ZM106.026 66.7563L106.374 67.2014C106.007 67.874 105.384 68.328 104.505 68.5636C103.601 68.8058 102.805 68.732 102.117 68.342C101.421 67.9543 100.954 67.3167 100.717 66.4294C100.488 65.5755 100.551 64.805 100.905 64.1179C101.267 63.4286 101.897 62.9639 102.792 62.7239C103.521 62.5287 104.195 62.5994 104.814 62.9358C105.423 63.2662 105.831 63.8164 106.037 64.5866C106.091 64.7875 106.125 64.9666 106.141 65.1241L101.482 66.3723C101.689 67.0437 102.054 67.52 102.578 67.8013C103.1 68.0742 103.7 68.1199 104.378 67.9382C105.165 67.7273 105.714 67.3334 106.026 66.7563ZM102.894 63.356C102.292 63.5175 101.849 63.8245 101.567 64.2771C101.292 64.7273 101.203 65.2492 101.3 65.8425L105.368 64.7523C105.201 64.1602 104.895 63.7396 104.451 63.4906C104.008 63.2416 103.489 63.1967 102.894 63.356ZM110.989 65.1169C110.92 64.8574 110.755 64.6772 110.495 64.5765C110.243 64.4735 109.95 64.4175 109.615 64.4084C109.289 64.3971 108.957 64.3785 108.618 64.3526C108.277 64.3184 107.965 64.2091 107.682 64.0247C107.405 63.8296 107.217 63.5437 107.116 63.167C106.995 62.7149 107.066 62.3101 107.329 61.9525C107.59 61.5865 107.992 61.3306 108.536 61.1848C109.315 60.9762 109.961 61.0274 110.475 61.3383L110.33 61.902C109.848 61.6452 109.306 61.5976 108.703 61.7591C108.369 61.8488 108.116 62.0107 107.945 62.2449C107.781 62.4684 107.734 62.7099 107.803 62.9694C107.875 63.2373 108.039 63.4311 108.295 63.5508C108.558 63.6599 108.853 63.7243 109.181 63.744C109.516 63.7531 109.853 63.7706 110.191 63.7964C110.53 63.8222 110.836 63.9243 111.108 64.1026C111.388 64.2787 111.577 64.5467 111.673 64.9067C111.81 65.4173 111.724 65.8666 111.415 66.2544C111.115 66.64 110.667 66.9124 110.073 67.0716C109.705 67.1703 109.297 67.1898 108.851 67.13C108.431 67.0719 108.121 66.9531 107.921 66.7736L108.17 66.2491C108.381 66.399 108.662 66.4941 109.014 66.5344C109.374 66.5725 109.701 66.5523 109.994 66.4738C110.362 66.3751 110.64 66.2065 110.827 65.9679C111.021 65.7186 111.075 65.435 110.989 65.1169ZM114.676 65.7172L114.023 65.8921L112.509 60.2415L113.162 60.0665L114.676 65.7172ZM111.807 58.0743C111.773 57.9487 111.793 57.8359 111.864 57.7359C111.936 57.6359 112.035 57.569 112.161 57.5354C112.27 57.5062 112.377 57.5223 112.483 57.5836C112.595 57.6342 112.667 57.7182 112.699 57.8354C112.737 57.9777 112.725 58.1019 112.664 58.2081C112.611 58.312 112.522 58.3807 112.396 58.4144C112.262 58.4503 112.138 58.4387 112.024 58.3797C111.917 58.3184 111.845 58.2166 111.807 58.0743ZM116.389 66.1464C116.275 65.7195 116.329 65.3191 116.552 64.9454C116.775 64.5716 117.147 64.2521 117.668 63.9869C117.502 63.8698 117.391 63.7067 117.335 63.4974C117.279 63.2881 117.299 63.0807 117.397 62.8751C116.986 62.8148 116.633 62.6536 116.339 62.3915C116.044 62.1295 115.843 61.7976 115.735 61.3958C115.581 60.8181 115.658 60.286 115.967 59.7994C116.276 59.3128 116.766 58.9797 117.435 58.8003C117.971 58.6567 118.482 58.6723 118.969 58.847L118.981 58.8436L120.474 57.986L120.639 58.6013L119.574 59.1963C119.892 59.479 120.102 59.8129 120.206 60.1979C120.356 60.7588 120.274 61.2921 119.961 61.7977C119.644 62.2865 119.158 62.6185 118.505 62.7934C118.271 62.8562 118.078 62.8899 117.927 62.8946C117.881 63.0236 117.88 63.1718 117.925 63.3393C117.976 63.5318 118.071 63.6679 118.209 63.7476C118.523 63.6456 118.696 63.5901 118.73 63.5811C119.592 63.3501 120.321 63.3252 120.917 63.5065C121.513 63.6878 121.887 64.0631 122.04 64.6323C122.19 65.1932 122.051 65.6969 121.624 66.1435C121.198 66.5984 120.554 66.9414 119.692 67.1725C118.822 67.4057 118.089 67.4359 117.496 67.263C116.911 67.0879 116.542 66.7157 116.389 66.1464ZM117.055 65.9681C117.153 66.3364 117.423 66.5736 117.864 66.6797C118.316 66.792 118.873 66.7595 119.534 66.5823C120.187 66.4073 120.681 66.1583 121.016 65.8352C121.351 65.5121 121.471 65.1706 121.374 64.8106C121.276 64.4423 121 64.202 120.549 64.0898C120.103 63.9669 119.549 63.9941 118.888 64.1713C118.235 64.3463 117.741 64.5953 117.406 64.9184C117.071 65.2415 116.954 65.5914 117.055 65.9681ZM116.571 60.0951C116.35 60.4415 116.293 60.8156 116.401 61.2174C116.508 61.6193 116.745 61.9149 117.109 62.1042C117.474 62.2936 117.887 62.3266 118.347 62.2032C118.808 62.0799 119.149 61.845 119.37 61.4986C119.591 61.1522 119.648 60.7781 119.54 60.3763C119.432 59.9744 119.192 59.68 118.819 59.4928C118.454 59.3035 118.046 59.2693 117.594 59.3905C117.15 59.5093 116.809 59.7442 116.571 60.0951ZM123.792 63.2745L123.139 63.4495L121.625 57.7988L122.278 57.6238L122.49 58.4149C122.655 58.0926 122.899 57.7984 123.223 57.5323C123.554 57.2639 123.909 57.0793 124.285 56.9783C125.072 56.7675 125.717 56.8144 126.221 57.1192C126.724 57.424 127.091 58.0075 127.322 58.8697L128.187 62.0969L127.534 62.2718L126.703 59.1703C126.34 57.8141 125.538 57.302 124.3 57.634C123.94 57.7304 123.61 57.9084 123.312 58.1678C123.011 58.4188 122.79 58.6979 122.648 59.0051L123.792 63.2745Z" fill="white"/>
<rect x="68" y="52" width="18" height="18" rx="2" transform="rotate(-60 68 52)" fill="white"/>
<circle cx="79.5732" cy="48.9497" r="7" transform="rotate(-15 79.5732 48.9497)" fill="#BAA5EC"/>
<rect x="75" y="46" width="9" height="9" rx="2" transform="rotate(-15 75 46)" fill="white"/>
<circle cx="79.6742" cy="49.1213" r="3" transform="rotate(-15 79.6742 49.1213)" fill="#BAA5EC"/>
<rect width="2" height="2" rx="1" transform="matrix(0.5 -0.866025 0.865989 0.500063 79 49)" fill="white"/>
</svg>
